<svg xmlns="http://www.w3.org/2000/svg" fill="none" viewBox="0 0 820 230"><style>text{font-family:-apple-system,BlinkMacSystemFont,&apos;Segoe UI&apos;,sans-serif}.label{font-size:12px;font-weight:600;fill:#1a1a1a}.phase,.sublabel{font-size:11px}.sublabel{fill:#6b7280}.phase{font-weight:600;fill:#fff}.phase-body{font-size:11px;fill:#0369a1}</style><defs><marker id="time-arrow" markerHeight="6" markerWidth="8" orient="auto" refX="7" refY="3"><polygon fill="#d1d5db" points="0 0 8 3 0 6"/></marker></defs><rect width="820" height="230" fill="#fafafa" rx="8"/><line x1="40" x2="720" y1="30" y2="30" stroke="#d1d5db" stroke-width="1.5" marker-end="url(#time-arrow)"/><text x="735" y="34" class="sublabel">time</text><path fill="#f97316" stroke="#ea580c" stroke-width="1" d="M44,52 h76 v36 h-76 q-4,0 -4,-4 v-28 q0,-4 4,-4z"/><text x="80" y="75" class="phase" text-anchor="middle">headers</text><line x1="120" x2="120" y1="42" y2="112" stroke="#16a34a" stroke-dasharray="4 3" stroke-width="1.5"/><text x="128" y="115" class="sublabel" style="fill:#16a34a">freed</text><rect width="60" height="36" x="120" y="52" fill="#eff6ff" stroke="#93c5fd" stroke-width="1"/><text x="150" y="75" class="phase-body" text-anchor="middle">body</text><rect width="30" height="36" x="180" y="52" fill="#f0f9ff" stroke="#bae6fd" stroke-dasharray="3 2" stroke-width="1"/><rect width="70" height="36" x="210" y="52" fill="#eff6ff" stroke="#93c5fd" stroke-width="1"/><text x="245" y="75" class="phase-body" text-anchor="middle">body</text><rect width="30" height="36" x="280" y="52" fill="#f0f9ff" stroke="#bae6fd" stroke-dasharray="3 2" stroke-width="1"/><rect width="60" height="36" x="310" y="52" fill="#eff6ff" stroke="#93c5fd" stroke-width="1"/><text x="340" y="75" class="phase-body" text-anchor="middle">body</text><rect width="30" height="36" x="370" y="52" fill="#f0f9ff" stroke="#bae6fd" stroke-dasharray="3 2" stroke-width="1"/><rect width="70" height="36" x="400" y="52" fill="#eff6ff" stroke="#93c5fd" stroke-width="1"/><text x="435" y="75" class="phase-body" text-anchor="middle">body</text><rect width="30" height="36" x="470" y="52" fill="#f0f9ff" stroke="#bae6fd" stroke-dasharray="3 2" stroke-width="1"/><path fill="#eff6ff" stroke="#93c5fd" stroke-width="1" d="M500,52 h76 q4,0 4,4 v28 q0,4 -4,4 h-76 v-36z"/><text x="538" y="75" class="phase-body" text-anchor="middle">body</text><text x="595" y="68" class="label" style="fill:#16a34a">✓</text><text x="613" y="68" class="sublabel" style="fill:#16a34a">completes</text><text x="40" y="148" class="sublabel">The body phase is no longer counted against the connection limit.</text><text x="40" y="163" class="sublabel">Gaps from decompression or buffering cannot trigger cancellation.</text><rect width="740" height="32" x="40" y="185" fill="#f9fafb" stroke="#e5e7eb" stroke-width="1" rx="6"/><rect width="24" height="14" x="58" y="194" fill="#eff6ff" stroke="#93c5fd" stroke-width="1" rx="3"/><text x="89" y="205" class="sublabel">Bytes flowing (not counted)</text><rect width="24" height="14" x="270" y="194" fill="#f0f9ff" stroke="#bae6fd" stroke-dasharray="3 2" stroke-width="1" rx="3"/><text x="301" y="205" class="sublabel">Brief pause (not counted)</text></svg>